<svg width="32" height="32" viewBox="0 0 32 32" fill="none" xmlns="http://www.w3.org/2000/svg">
<g clip-path="url(#clip0_453_8902)">
<path d="M27 3C28.3261 3 29.5979 3.52678 30.5355 4.46447C31.4732 5.40215 32 6.67392 32 8V24C32 25.3261 31.4732 26.5979 30.5355 27.5355C29.5979 28.4732 28.3261 29 27 29H5C3.67392 29 2.40215 28.4732 1.46447 27.5355C0.526784 26.5979 0 25.3261 0 24V8C0 6.67392 0.526784 5.40215 1.46447 4.46447C2.40215 3.52678 3.67392 3 5 3H27ZM30 10.922L16.508 18.862C16.3804 18.9369 16.2379 18.9826 16.0905 18.9957C15.9432 19.0088 15.7948 18.9891 15.656 18.938L15.492 18.862L2 10.926V24C2 24.7957 2.31607 25.5587 2.87868 26.1213C3.44129 26.6839 4.20435 27 5 27H27C27.7956 27 28.5587 26.6839 29.1213 26.1213C29.6839 25.5587 30 24.7957 30 24V10.922ZM27 5H5C4.20435 5 3.44129 5.31607 2.87868 5.87868C2.31607 6.44129 2 7.20435 2 8V8.604L16 16.84L30 8.6V8C30 7.20435 29.6839 6.44129 29.1213 5.87868C28.5587 5.31607 27.7956 5 27 5Z" fill="black"/>
</g>
<defs>
<clipPath id="clip0_453_8902">
<rect width="32" height="32" fill="white"/>
</clipPath>
</defs>
</svg>
