<svg width="32" height="32" viewBox="0 0 32 32" fill="none" xmlns="http://www.w3.org/2000/svg">
    <g clip-path="url(#clip0_453_8893)">
        <path fill-rule="evenodd" clip-rule="evenodd"
              d="M9.40364 0.0957558C11.1098 0.0172104 11.6538 -0.000244141 16 -0.000244141C20.3462 -0.000244141 20.8902 0.0186649 22.5949 0.0957558C24.2996 0.172847 25.4633 0.444847 26.4815 0.839029C27.5476 1.24194 28.5149 1.87176 29.3149 2.6863C30.1295 3.48485 30.7578 4.45067 31.1593 5.5183C31.5549 6.53648 31.8255 7.70012 31.904 9.40194C31.9825 11.111 32 11.655 32 15.9998C32 20.3459 31.9811 20.8899 31.904 22.5961C31.8269 24.2979 31.5549 25.4616 31.1593 26.4798C30.7578 27.5475 30.1284 28.515 29.3149 29.3147C28.5149 30.1292 27.5476 30.7576 26.4815 31.159C25.4633 31.5547 24.2996 31.8252 22.5978 31.9038C20.8902 31.9823 20.3462 31.9998 16 31.9998C11.6538 31.9998 11.1098 31.9808 9.40364 31.9038C7.70182 31.8267 6.53818 31.5547 5.52 31.159C4.45225 30.7575 3.48483 30.1281 2.68509 29.3147C1.8711 28.5156 1.24119 27.5487 0.839273 26.4812C0.445091 25.463 0.174545 24.2994 0.096 22.5976C0.0174545 20.8885 0 20.3445 0 15.9998C0 11.6536 0.0189091 11.1096 0.096 9.40485C0.173091 7.70012 0.445091 6.53648 0.839273 5.5183C1.24178 4.45078 1.87217 3.48385 2.68655 2.68485C3.48515 1.87103 4.4516 1.24113 5.51855 0.839029C6.53673 0.444847 7.70036 0.174301 9.40218 0.0957558H9.40364ZM22.4655 2.97576C20.7782 2.89866 20.272 2.88267 16 2.88267C11.728 2.88267 11.2218 2.89866 9.53455 2.97576C7.97382 3.04703 7.12727 3.30739 6.56291 3.52703C5.81673 3.81794 5.28291 4.16267 4.72291 4.72267C4.19207 5.2391 3.78354 5.8678 3.52727 6.56267C3.30764 7.12703 3.04727 7.97357 2.976 9.5343C2.89891 11.2216 2.88291 11.7278 2.88291 15.9998C2.88291 20.2718 2.89891 20.7779 2.976 22.4652C3.04727 24.0259 3.30764 24.8725 3.52727 25.4368C3.78327 26.1307 4.192 26.7605 4.72291 27.2768C5.23927 27.8078 5.86909 28.2165 6.56291 28.4725C7.12727 28.6921 7.97382 28.9525 9.53455 29.0238C11.2218 29.1008 11.7265 29.1168 16 29.1168C20.2735 29.1168 20.7782 29.1008 22.4655 29.0238C24.0262 28.9525 24.8727 28.6921 25.4371 28.4725C26.1833 28.1816 26.7171 27.8368 27.2771 27.2768C27.808 26.7605 28.2167 26.1307 28.4727 25.4368C28.6924 24.8725 28.9527 24.0259 29.024 22.4652C29.1011 20.7779 29.1171 20.2718 29.1171 15.9998C29.1171 11.7278 29.1011 11.2216 29.024 9.5343C28.9527 7.97357 28.6924 7.12703 28.4727 6.56267C28.1818 5.81648 27.8371 5.28267 27.2771 4.72267C26.7606 4.19186 26.1319 3.78334 25.4371 3.52703C24.8727 3.30739 24.0262 3.04703 22.4655 2.97576ZM13.9564 20.9321C15.0977 21.4072 16.3686 21.4713 17.5519 21.1135C18.7352 20.7557 19.7577 19.9982 20.4445 18.9703C21.1314 17.9424 21.4401 16.7079 21.3179 15.4777C21.1957 14.2475 20.6502 13.0979 19.7745 12.2252C19.2163 11.6674 18.5414 11.2402 17.7983 10.9745C17.0552 10.7088 16.2624 10.6112 15.4771 10.6887C14.6917 10.7661 13.9333 11.0167 13.2564 11.4225C12.5796 11.8282 12.0011 12.379 11.5626 13.0352C11.1242 13.6913 10.8366 14.4365 10.7208 15.2172C10.6049 15.9978 10.6635 16.7944 10.8924 17.5496C11.1214 18.3048 11.5149 18.9999 12.0447 19.5848C12.5745 20.1697 13.2274 20.6298 13.9564 20.9321ZM10.1847 10.1845C10.9484 9.42081 11.855 8.81503 12.8528 8.40174C13.8506 7.98844 14.92 7.77572 16 7.77572C17.08 7.77572 18.1494 7.98844 19.1472 8.40174C20.145 8.81503 21.0516 9.42081 21.8153 10.1845C22.5789 10.9482 23.1847 11.8548 23.598 12.8526C24.0113 13.8503 24.224 14.9198 24.224 15.9998C24.224 17.0798 24.0113 18.1492 23.598 19.147C23.1847 20.1447 22.5789 21.0514 21.8153 21.815C20.273 23.3573 18.1812 24.2238 16 24.2238C13.8188 24.2238 11.727 23.3573 10.1847 21.815C8.64242 20.2727 7.77596 18.1809 7.77596 15.9998C7.77596 13.8186 8.64242 11.7268 10.1847 10.1845ZM26.048 9.00048C26.2372 8.82197 26.3887 8.60729 26.4935 8.36917C26.5983 8.13105 26.6543 7.87433 26.6581 7.6142C26.6619 7.35407 26.6134 7.09583 26.5156 6.85475C26.4178 6.61368 26.2726 6.39468 26.0887 6.21072C25.9047 6.02676 25.6857 5.88159 25.4446 5.78378C25.2036 5.68598 24.9453 5.63754 24.6852 5.64133C24.4251 5.64512 24.1683 5.70107 23.9302 5.80586C23.6921 5.91065 23.4774 6.06215 23.2989 6.25139C22.9517 6.61944 22.7616 7.1083 22.769 7.6142C22.7764 8.1201 22.9806 8.60322 23.3384 8.96098C23.6962 9.31875 24.1793 9.523 24.6852 9.53037C25.1911 9.53775 25.68 9.34767 26.048 9.00048Z"
              fill="white"/>
    </g>
    <defs>
        <clipPath id="clip0_453_8893">
            <rect width="32" height="32" fill="white"/>
        </clipPath>
    </defs>
</svg>
