<svg width="248" height="124" viewBox="0 0 248 124" fill="none" xmlns="http://www.w3.org/2000/svg">
<path d="M124 92.048H96.0002V28H64V0H156V28H124V92.048Z" fill="white"/>
<rect width="28" height="28" fill="white"/>
<rect y="32" width="28" height="28" fill="white"/>
<rect y="64" width="28" height="28" fill="white"/>
<rect y="96" width="28" height="28" fill="white"/>
<rect x="32" y="32" width="28" height="28" fill="white"/>
<rect x="32" y="64" width="28" height="28" fill="white"/>
<rect x="32" y="96" width="28" height="28" fill="white"/>
<rect x="64" y="64" width="28" height="28" fill="white"/>
<rect x="64" y="96" width="28" height="28" fill="white"/>
<rect x="96" y="96" width="28" height="28" fill="white"/>
<path d="M140.276 124C136.807 124 133.894 122.899 131.537 120.696C129.179 118.493 128 115.594 128 112C128 108.406 129.179 105.507 131.537 103.304C133.894 101.101 136.807 100 140.276 100C142.634 100 144.617 100.533 146.227 101.6C147.837 102.667 149.084 104.012 149.968 105.635L145.071 108.243C144.617 107.409 143.96 106.713 143.099 106.157C142.26 105.577 141.319 105.287 140.276 105.287C138.44 105.287 136.921 105.936 135.719 107.235C134.54 108.51 133.951 110.099 133.951 112C133.951 113.901 134.54 115.501 135.719 116.8C136.921 118.075 138.44 118.713 140.276 118.713C141.07 118.713 141.852 118.574 142.622 118.296C143.416 118.017 144.028 117.693 144.459 117.322V115.513H139.358V110.261H150.308V119.478C147.633 122.493 144.289 124 140.276 124Z" fill="white"/>
<path d="M173.08 123.583H166.381L162.572 115.791H159.58V123.583H153.731V100.383H165.089C167.537 100.383 169.464 101.113 170.869 102.574C172.275 104.035 172.978 105.878 172.978 108.104C172.978 109.959 172.524 111.478 171.618 112.661C170.733 113.82 169.679 114.62 168.455 115.061L173.08 123.583ZM164.204 110.574C164.998 110.574 165.667 110.354 166.211 109.913C166.755 109.472 167.027 108.858 167.027 108.07C167.027 107.304 166.755 106.701 166.211 106.261C165.667 105.82 164.998 105.6 164.204 105.6H159.58V110.574H164.204Z" fill="white"/>
<path d="M195.868 120.626C193.578 122.875 190.688 124 187.197 124C183.705 124 180.804 122.875 178.491 120.626C176.202 118.377 175.057 115.501 175.057 112C175.057 108.499 176.202 105.623 178.491 103.374C180.804 101.125 183.705 100 187.197 100C190.688 100 193.578 101.125 195.868 103.374C198.158 105.623 199.303 108.499 199.303 112C199.303 115.501 198.158 118.377 195.868 120.626ZM187.197 118.713C189.033 118.713 190.518 118.075 191.651 116.8C192.785 115.525 193.352 113.925 193.352 112C193.352 110.075 192.785 108.475 191.651 107.2C190.518 105.925 189.033 105.287 187.197 105.287C185.338 105.287 183.842 105.925 182.708 107.2C181.574 108.475 181.008 110.075 181.008 112C181.008 113.925 181.574 115.525 182.708 116.8C183.842 118.075 185.338 118.713 187.197 118.713Z" fill="white"/>
<path d="M212.994 124C209.458 124 206.783 123.107 204.969 121.322C203.155 119.536 202.249 117.159 202.249 114.191V100.383H208.2V113.983C208.2 115.397 208.608 116.545 209.424 117.426C210.263 118.284 211.453 118.713 212.994 118.713C214.513 118.713 215.681 118.284 216.497 117.426C217.336 116.545 217.755 115.397 217.755 113.983V100.383H223.672V114.157C223.672 117.148 222.765 119.536 220.952 121.322C219.161 123.107 216.508 124 212.994 124Z" fill="white"/>
<path d="M233.602 123.583H227.753V100.383H239.111C241.559 100.383 243.486 101.125 244.892 102.609C246.297 104.07 247 105.901 247 108.104C247 110.284 246.297 112.116 244.892 113.6C243.486 115.061 241.559 115.791 239.111 115.791H233.602V123.583ZM238.329 110.574C239.122 110.574 239.768 110.354 240.267 109.913C240.788 109.472 241.049 108.87 241.049 108.104C241.049 107.316 240.788 106.701 240.267 106.261C239.768 105.82 239.122 105.6 238.329 105.6H233.602V110.574H238.329Z" fill="white"/>
<path d="M248 91.9999H223L185 39.9999V91.9999H160V0H185L224 51.9999V0H248V7.49987V12.9999V24.4999V46.9999V91.9999Z" fill="white"/>
</svg>
