<svg width="32" height="32" viewBox="0 0 32 32" fill="none" xmlns="http://www.w3.org/2000/svg">
    <g clip-path="url(#clip0_453_8900)">
        <path d="M13.3015 18.6872C15.263 20.7191 17.6363 22.2879 20.2549 23.2833L23.7974 20.4047C23.9024 20.3309 24.0269 20.2913 24.1544 20.2913C24.2819 20.2913 24.4065 20.3309 24.5115 20.4047L31.089 24.7322C31.3387 24.8855 31.5501 25.096 31.7065 25.347C31.8628 25.5981 31.9599 25.8828 31.99 26.1788C32.02 26.4747 31.9823 26.7737 31.8798 27.0522C31.7772 27.3307 31.6127 27.5811 31.3991 27.7835L28.3171 30.8923C27.8757 31.3377 27.3332 31.6645 26.738 31.8436C26.1429 32.0228 25.5135 32.0487 24.9061 31.919C18.8475 30.6412 13.2631 27.6487 8.79116 23.2833C4.41848 18.8745 1.39262 13.2647 0.0806084 7.13449C-0.049001 6.52389 -0.0219497 5.88945 0.159141 5.29266C0.340231 4.69587 0.669219 4.15697 1.11422 3.72818L4.30903 0.580937C4.50673 0.373476 4.74783 0.214375 5.01428 0.115547C5.28073 0.0167184 5.56562 -0.0192759 5.84762 0.0102591C6.12962 0.0397941 6.40143 0.134093 6.64268 0.286095C6.88394 0.438097 7.08839 0.643862 7.24074 0.887985L11.6195 7.5183C11.695 7.62242 11.7358 7.74856 11.7358 7.87812C11.7358 8.00769 11.695 8.13383 11.6195 8.23794L8.73478 11.7786C9.73605 14.399 11.296 16.7589 13.3015 18.6872Z"
              fill="white"/>
    </g>
    <defs>
        <clipPath id="clip0_453_8900">
            <rect width="32" height="32" fill="white"/>
        </clipPath>
    </defs>
</svg>
