<svg width="24" height="24" viewBox="0 0 24 24" fill="none" xmlns="http://www.w3.org/2000/svg">
<g clip-path="url(#clip0_416_6110)">
<path d="M4.29698 22.9601C4.17998 23.6704 4.83698 24.2256 5.41598 23.9088L12.001 20.2995L18.5845 23.9088C19.1635 24.2256 19.8205 23.6704 19.7035 22.9617L18.4585 15.3943L23.7415 10.0251C24.2365 9.5227 23.9815 8.60438 23.3185 8.50518L15.9715 7.39167L12.6955 0.468994C12.6331 0.328667 12.5346 0.210107 12.4115 0.127088C12.2885 0.0440694 12.1458 0 12.0002 0C11.8546 0 11.712 0.0440694 11.5889 0.127088C11.4658 0.210107 11.3674 0.328667 11.305 0.468994L8.02898 7.39327L0.68198 8.50678C0.0204801 8.60597 -0.23602 9.5243 0.25748 10.0267L5.54198 15.3959L4.29698 22.9633V22.9601ZM11.6545 18.5332L6.12548 21.5634L7.16648 15.2327C7.19087 15.0869 7.18133 14.9371 7.13869 14.7962C7.09606 14.6553 7.02164 14.5278 6.92198 14.4247L2.56298 9.99307L8.64098 9.07154C8.76684 9.05127 8.88621 8.99876 8.98888 8.91851C9.09155 8.83827 9.17445 8.73267 9.23048 8.61077L11.998 2.75842L14.7685 8.61077C14.8245 8.73267 14.9074 8.83827 15.0101 8.91851C15.1127 8.99876 15.2321 9.05127 15.358 9.07154L21.436 9.99147L17.077 14.4231C16.9771 14.5263 16.9025 14.6541 16.8599 14.7953C16.8172 14.9365 16.8078 15.0867 16.8325 15.2327L17.8735 21.5634L12.3445 18.5332C12.2376 18.4744 12.119 18.4438 11.9987 18.4438C11.8784 18.4438 11.7599 18.4744 11.653 18.5332H11.6545Z" fill="#DBC81A"/>
<path d="M8.9978 8.75171L11.9978 2.75171L14.9978 8.75171L21.9978 9.75171L17.4978 14.7517L17.9978 21.7517L11.9978 19.2517L5.9978 21.7517L6.4978 14.7517L1.4978 9.75171L8.9978 8.75171Z" fill="#DBC81A"/>
</g>
<defs>
<clipPath id="clip0_416_6110">
<rect width="24" height="24" fill="white"/>
</clipPath>
</defs>
</svg>
