<svg width="524" height="447" viewBox="0 0 524 447" fill="none" xmlns="http://www.w3.org/2000/svg">
<path d="M522 377.92V444H3V387.293H19.7684V312.778H25.2797L25.9833 300.359L40.7582 283.019V259.117H45.0969V283.019L61.1618 300.359V312.778H65.735V313.95H66.9076V337.968H76.6403V201.239L93.6432 155.311V135.628H97.1611V155.311L114.985 201.239V365.032H130.932V346.052H134.45V285.362H138.906V220.219H143.597V126.489H144.769V95.5584H145.707V94.3868H146.88V60.1753H148.053V59.0037H149.225V24.5579H150.398V3H152.743V37.2115H153.681V71.423H154.971V72.4774H156.026V113.836H157.316V116.179H159.427V138.791V140.08H160.6V195.029H162.945V196.084H164.235V264.741H165.29V265.913H167.518V267.084H168.691L168.573 328.595H169.863V329.884H172.209V331.055H173.381V354.019H176.664V236.154H177.837V230.53H179.01V225.843H180.182V220.219H181.355V216.705H182.41V214.361H183.466V212.018H184.638V209.909H185.928V208.738V206.511H186.984V205.223H188.156V204.285V203.114H189.329V201.942H190.501V197.256H191.674V195.029H192.847V193.975H196.364V195.029H197.303V195.967V200.77H198.475V201.942H199.648V203.114H200.82V205.223H201.993V207.566H203.166V209.909H204.338V212.252H205.511V214.478H206.566V217.876H207.622V220.922H208.677V225.023L209.967 225.375V234.162H210.905V240.84V258.649H212.429V268.49H213.836C213.836 268.49 214.052 261.598 215.595 257.829C217.007 254.382 220.286 251.033 220.286 251.033C220.286 251.033 219.002 244.59 220.286 241.309C221.7 237.693 227.322 234.982 227.322 234.982C227.322 234.982 226.074 228.707 227.322 225.023C228.508 221.521 232.95 217.408 232.95 217.408L231.074 213.541L229.315 210.143L225.797 205.34L222.397 203.348L218.175 201.005L216.182 199.95L214.305 198.662H212.195V197.49H252.65L254.057 192.218L258.396 183.079L265.314 169.722L272.585 158.592L279.62 148.867L287.477 139.026L293.809 131.176L298.382 126.489L302.369 123.56V55.4888L314.095 70.9543V200.77H318.786V204.168H323.476L325.469 204.637L326.994 205.105L328.753 206.511L329.808 207.566L330.277 209.44V210.964L329.808 212.955L328.167 214.244L318.786 215.416L322.186 320.628H327.697L328.167 215.416L331.215 213.307L330.629 178.861L336.609 168.316V153.085H353.73V168.316L360.765 178.861V213.307L363.228 215.416V334.453H375.775V192.076H379.762V139.612L385.39 135.511V112.899L395.24 102.705L395.475 87.7086H398.289V102.705L408.96 112.899V135.511L413.885 139.612V192.076H417.403V369.25H438.041L437.572 342.889L453.05 342.303V329.766L455.747 296.375L456.216 280.793L455.747 268.725L454.575 255.368L451.526 223.031L448.594 192.921V162.458L456.568 160.935L463.721 159.764H478.027H484.242L494.092 161.99L492.098 192.921L490.105 223.031L488.58 255.368V268.725V280.793V295.789L490.339 329.766V344.295L491.981 377.92H522Z" fill="#71C168" stroke="#71C168" stroke-width="5"/>
</svg>
