<svg width="20" height="20" viewBox="0 0 20 20" fill="none" xmlns="http://www.w3.org/2000/svg">
<path d="M8.45563 11.467C9.61535 12.6435 11.0186 13.5518 12.5667 14.1281L14.6612 12.4615C14.7233 12.4187 14.7969 12.3958 14.8723 12.3958C14.9477 12.3958 15.0213 12.4187 15.0834 12.4615L18.9723 14.967C19.1199 15.0558 19.2449 15.1776 19.3374 15.323C19.4298 15.4684 19.4872 15.6332 19.505 15.8046C19.5227 15.9759 19.5004 16.1491 19.4398 16.3103C19.3792 16.4716 19.2819 16.6165 19.1556 16.7337L17.3334 18.5337C17.0725 18.7915 16.7517 18.9808 16.3998 19.0845C16.0479 19.1882 15.6758 19.2032 15.3167 19.1281C11.7346 18.3883 8.43293 16.6556 5.78897 14.1281C3.20368 11.5755 1.41467 8.32748 0.638967 4.77812C0.562337 4.42459 0.578331 4.05725 0.685398 3.71172C0.792466 3.36618 0.986976 3.05416 1.25008 2.8059L3.13897 0.983677C3.25586 0.863559 3.3984 0.771441 3.55594 0.71422C3.71347 0.656999 3.88191 0.636159 4.04864 0.65326C4.21537 0.67036 4.37607 0.724958 4.51871 0.812966C4.66135 0.900973 4.78223 1.02011 4.8723 1.16145L7.46119 5.00034C7.50584 5.06062 7.52995 5.13366 7.52995 5.20868C7.52995 5.2837 7.50584 5.35673 7.46119 5.41701L5.75563 7.46701C6.34762 8.9842 7.26993 10.3506 8.45563 11.467Z" fill="black"/>
</svg>
